<?xml version="1.0" encoding="UTF-8" ?>
<!DOCTYPE svg PUBLIC "-//W3C//DTD SVG 1.1//EN" "http://www.w3.org/Graphics/SVG/1.1/DTD/svg11.dtd">
<svg width="738pt" height="115pt" viewBox="0 0 738 115" version="1.1" xmlns="http://www.w3.org/2000/svg">
<g id="#000000ff">
<path fill="#000000" opacity="1.00" d=" M 42.42 3.52 C 44.90 2.97 47.46 3.01 49.99 2.98 C 68.66 3.04 87.34 2.96 106.02 3.02 C 108.15 3.21 110.69 2.94 112.39 4.52 C 113.83 8.12 113.54 12.13 113.39 15.92 C 113.12 17.95 113.19 20.93 110.74 21.59 C 106.38 22.70 101.29 20.55 97.45 23.56 C 95.54 24.68 94.60 26.83 94.79 29.01 C 94.73 40.02 94.83 51.04 94.78 62.05 C 94.65 63.63 94.80 65.46 93.71 66.76 C 90.41 68.38 86.61 67.89 83.06 68.02 C 76.32 67.87 69.57 68.26 62.84 67.80 C 61.04 67.61 58.40 67.28 58.27 64.97 C 57.51 53.97 58.43 42.91 57.83 31.90 C 57.39 28.42 56.80 24.32 53.89 22.00 C 49.39 21.12 44.42 22.84 40.19 20.79 C 38.47 17.48 39.07 13.50 39.06 9.90 C 39.23 7.48 39.20 3.78 42.42 3.52 M 43.13 5.27 C 39.68 8.21 40.54 15.10 44.53 17.52 C 48.54 20.73 53.99 17.86 58.42 19.64 C 60.05 20.40 59.87 22.44 60.04 23.93 C 60.23 33.63 59.94 43.34 60.13 53.05 C 60.30 57.95 62.53 63.49 67.28 65.56 C 73.06 67.24 78.02 61.35 78.69 56.08 C 79.41 44.76 78.39 33.36 79.18 22.04 C 79.70 18.38 84.36 19.21 87.01 19.15 C 90.94 19.78 95.37 17.87 96.76 13.97 C 98.02 9.45 93.71 4.55 89.05 5.09 C 73.75 5.20 58.42 4.83 43.13 5.27 M 99.66 5.62 C 99.13 9.32 99.12 13.07 99.44 16.79 C 102.37 13.67 101.51 9.06 99.66 5.62 M 104.30 5.34 C 103.52 8.52 103.32 11.82 103.50 15.08 C 103.13 16.16 104.74 19.01 105.66 16.79 C 106.19 13.02 106.84 8.56 104.30 5.34 M 109.91 19.33 C 111.35 14.62 111.78 9.08 108.96 4.78 C 108.00 9.50 106.92 15.13 109.91 19.33 M 81.58 22.30 C 80.63 28.82 81.12 35.43 81.00 42.00 C 81.11 49.34 80.74 56.68 81.24 64.01 C 82.18 62.50 83.17 60.90 82.99 59.04 C 83.04 50.03 82.99 41.02 82.99 32.01 C 82.87 28.75 83.22 25.26 81.58 22.30 M 85.13 32.00 C 85.25 41.67 84.91 51.35 85.28 61.01 C 84.97 62.55 88.07 62.48 87.69 60.81 C 88.15 53.55 87.72 46.26 87.87 38.98 C 87.69 33.20 88.57 27.23 86.66 21.64 C 84.66 24.74 85.25 28.52 85.13 32.00 M 90.00 33.03 C 90.16 42.72 89.67 52.44 90.23 62.11 C 90.71 62.13 91.68 62.17 92.16 62.19 C 92.88 55.49 92.29 48.73 92.47 42.01 C 92.25 35.45 93.18 28.74 91.46 22.31 C 89.43 25.50 90.24 29.46 90.00 33.03 Z" />
<path fill="#000000" opacity="1.00" d=" M 214.69 4.81 C 216.64 3.01 219.52 3.19 221.99 3.01 C 239.64 2.97 257.30 3.03 274.96 2.98 C 277.58 3.11 280.42 2.85 282.81 4.14 C 284.69 7.41 284.03 11.46 283.92 15.07 C 283.91 17.71 282.69 20.08 281.02 22.05 C 274.31 30.28 266.62 37.65 259.76 45.75 C 258.36 47.11 258.71 49.14 258.58 50.89 C 266.07 50.92 273.57 50.54 281.05 50.93 C 283.04 50.93 285.39 51.80 285.55 54.09 C 286.09 58.18 286.71 62.91 284.52 66.62 C 282.35 68.09 279.55 67.85 277.06 68.01 C 257.71 67.97 238.36 68.04 219.01 67.97 C 216.67 67.76 212.81 68.09 212.41 64.96 C 211.77 59.47 211.12 52.74 215.43 48.49 C 222.09 41.76 228.18 34.48 234.79 27.71 C 235.89 26.52 237.05 25.35 237.84 23.92 C 238.16 22.15 236.63 20.45 234.93 20.21 C 228.96 19.54 222.91 20.48 216.94 19.75 C 215.50 19.69 214.13 18.68 214.22 17.12 C 213.78 13.05 213.54 8.78 214.69 4.81 M 217.38 5.37 C 214.29 9.51 216.39 16.05 221.41 17.46 C 229.04 18.90 237.05 16.66 244.58 18.98 C 243.64 20.57 242.62 22.12 241.36 23.47 C 233.94 31.35 226.65 39.35 219.26 47.26 C 216.80 49.96 213.91 52.93 214.12 56.90 C 213.24 61.12 216.66 65.54 221.01 65.49 C 234.36 65.63 247.71 65.53 261.06 65.54 C 264.75 65.76 269.17 63.10 268.98 59.04 C 267.64 54.43 262.15 53.23 257.94 53.53 C 251.39 53.12 244.51 54.65 238.18 52.47 C 237.91 50.23 239.85 48.68 241.17 47.17 C 249.29 39.28 256.44 30.48 264.42 22.44 C 267.54 19.51 268.49 14.99 267.80 10.88 C 267.06 7.37 263.69 4.57 260.02 5.08 C 245.81 5.28 231.56 4.69 217.38 5.37 M 275.01 5.50 C 273.62 10.45 276.55 16.52 272.75 20.67 C 264.91 29.79 256.26 38.23 248.70 47.58 C 251.98 46.95 253.60 43.87 255.70 41.64 C 261.79 34.79 268.24 28.25 274.35 21.40 C 278.65 17.39 278.31 10.03 275.01 5.50 M 279.99 5.48 C 278.50 10.59 281.37 16.62 277.67 21.04 C 278.12 21.54 278.58 22.03 279.04 22.53 C 280.18 20.50 282.05 18.63 281.95 16.13 C 281.86 12.55 283.10 8.15 279.99 5.48 M 271.69 18.25 C 272.20 14.85 272.25 11.40 271.87 7.99 C 269.71 11.05 269.53 15.14 271.69 18.25 M 276.02 22.56 C 271.01 28.29 265.70 33.76 260.65 39.47 C 258.05 42.59 254.15 45.06 253.53 49.39 C 261.54 40.98 269.23 32.24 277.46 24.02 C 276.98 23.53 276.50 23.05 276.02 22.56 M 272.42 53.72 C 271.64 56.27 270.68 59.00 271.55 61.66 C 272.60 61.91 273.16 61.52 273.26 60.51 C 273.67 58.22 272.89 55.94 272.42 53.72 M 275.78 61.73 C 276.47 61.61 277.83 61.36 278.51 61.23 C 278.39 59.80 278.29 58.35 277.97 56.94 C 274.67 55.52 275.65 59.82 275.78 61.73 M 280.91 56.03 C 280.91 57.66 280.01 59.58 280.97 61.10 C 282.00 62.34 283.10 61.55 283.04 60.06 C 283.92 58.21 282.06 57.05 280.91 56.03 Z" />
<path fill="#000000" opacity="1.00" d=" M 550.29 4.47 C 558.49 3.78 566.75 4.15 574.98 3.97 C 577.22 4.07 580.71 3.53 581.41 6.42 C 582.19 10.13 582.55 14.37 580.82 17.86 C 578.43 19.19 575.57 18.89 572.94 19.02 C 566.26 18.91 559.56 19.19 552.89 18.87 C 551.30 18.63 548.86 18.68 548.46 16.67 C 547.74 13.52 547.86 10.22 548.31 7.04 C 548.45 5.96 549.02 4.55 550.29 4.47 M 551.17 6.35 C 549.66 8.71 549.56 12.26 551.84 14.17 C 555.31 17.75 561.60 17.45 564.91 13.81 C 567.10 11.60 565.66 7.35 562.96 6.29 C 559.05 5.88 555.07 5.88 551.17 6.35 M 568.40 8.85 C 567.83 10.72 567.86 12.83 570.08 13.56 C 569.86 11.88 570.11 9.82 568.40 8.85 M 572.12 8.61 C 572.69 10.23 572.02 14.88 574.85 12.67 C 575.04 10.73 573.96 9.19 572.12 8.61 M 577.45 9.10 C 577.20 10.56 577.01 12.01 576.90 13.48 C 579.40 13.56 579.87 9.23 577.45 9.10 Z" />
<path fill="#000000" opacity="1.00" d=" M 504.12 7.23 C 513.37 6.85 522.72 6.76 531.97 7.32 C 537.18 8.16 533.82 14.96 535.71 18.37 C 536.53 21.35 539.95 20.81 542.25 21.73 C 544.56 24.12 544.06 27.93 543.71 30.96 C 543.41 34.35 539.26 33.59 537.09 34.99 C 534.29 37.10 535.25 40.97 535.03 43.98 C 535.23 46.58 534.62 49.55 536.09 51.87 C 537.99 53.07 540.49 52.70 542.59 53.46 C 544.64 57.06 544.19 61.61 543.43 65.53 C 542.98 68.03 540.00 67.94 538.05 68.00 C 531.70 68.02 525.34 68.04 518.99 67.93 C 514.56 67.74 509.78 67.65 505.96 65.10 C 503.31 63.34 502.41 60.04 502.13 57.06 C 501.51 50.02 502.31 42.94 501.70 35.90 C 501.74 32.86 497.85 33.35 495.98 32.02 C 494.70 29.58 494.85 26.64 495.27 23.99 C 495.66 21.11 499.27 21.35 501.23 20.03 C 503.41 16.17 500.04 10.05 504.12 7.23 M 509.34 9.48 C 507.30 10.17 505.43 11.61 504.49 13.58 C 503.62 16.31 504.39 19.42 503.07 22.00 C 500.88 23.36 497.19 23.72 497.12 26.98 C 496.99 30.44 501.15 31.05 503.31 32.77 C 504.63 37.36 503.78 42.26 504.00 46.98 C 504.24 52.10 503.13 57.68 505.66 62.40 C 508.82 66.17 514.47 65.97 518.94 65.51 C 522.34 64.78 526.98 63.75 528.08 59.93 C 526.88 55.06 519.87 54.15 519.70 48.78 C 519.30 43.63 518.31 38.12 520.09 33.14 C 522.27 30.99 527.27 31.87 528.01 27.95 C 528.24 23.83 523.37 23.61 520.63 22.35 C 519.21 19.48 519.99 16.08 518.85 13.14 C 517.01 9.95 512.84 8.32 509.34 9.48 M 527.83 17.54 C 530.08 15.38 528.17 11.96 527.68 9.42 C 526.71 11.71 524.36 16.71 527.83 17.54 M 521.91 17.50 C 524.52 17.03 523.80 14.46 523.83 12.54 C 521.75 13.41 522.13 15.70 521.91 17.50 M 531.57 13.44 C 530.70 14.77 530.56 17.64 532.63 17.80 C 533.13 16.01 533.01 14.16 531.99 12.57 L 531.57 13.44 M 537.31 29.06 C 536.51 27.51 535.66 26.00 534.75 24.53 C 533.81 26.78 534.15 29.50 537.31 29.06 M 539.00 28.88 C 540.84 29.58 541.46 28.01 542.06 26.66 C 541.45 26.28 540.23 25.52 539.63 25.14 C 539.20 26.34 538.75 27.58 539.00 28.88 M 530.60 26.10 C 529.25 27.04 530.49 29.80 532.05 28.60 C 533.44 27.67 532.13 24.82 530.60 26.10 M 526.98 33.27 C 525.42 38.86 526.02 44.76 526.30 50.48 C 527.48 49.59 529.23 48.88 528.87 47.07 C 528.79 42.46 529.91 37.27 526.98 33.27 M 531.49 33.40 C 530.73 38.95 530.87 44.59 531.26 50.16 C 533.32 47.93 533.03 44.82 533.06 42.01 C 533.00 39.08 533.43 35.86 531.49 33.40 M 522.56 34.35 C 521.82 39.26 521.72 44.28 522.23 49.21 C 523.75 51.53 524.08 46.99 524.02 46.02 C 523.91 42.13 524.69 37.85 522.56 34.35 M 534.75 63.20 C 537.71 61.30 536.46 57.86 535.65 55.09 C 533.77 57.44 533.58 60.47 534.75 63.20 M 541.24 62.98 C 541.27 60.43 541.16 57.87 540.81 55.35 C 538.89 57.57 537.30 62.04 541.24 62.98 M 530.45 58.16 C 530.23 59.56 530.16 61.01 530.70 62.36 C 532.77 62.17 532.43 58.32 530.45 58.16 Z" />
<path fill="#000000" opacity="1.00" d=" M 594.17 7.22 C 603.40 6.86 612.72 6.76 621.95 7.31 C 627.17 8.14 623.84 14.89 625.69 18.31 C 626.49 21.34 629.95 20.84 632.28 21.74 C 634.64 24.37 634.14 28.44 633.54 31.65 C 632.59 34.70 628.33 33.38 626.49 35.54 C 624.56 37.51 625.21 40.50 625.03 42.98 C 625.24 45.92 624.53 49.24 626.09 51.90 C 628.01 53.05 630.47 52.72 632.58 53.45 C 634.65 57.07 634.20 61.65 633.41 65.59 C 632.93 68.05 629.97 67.92 628.05 68.00 C 621.70 68.02 615.36 68.04 609.02 67.93 C 604.58 67.74 599.78 67.65 595.96 65.10 C 593.33 63.35 592.42 60.08 592.14 57.12 C 591.51 50.06 592.31 42.96 591.70 35.91 C 591.76 32.86 587.87 33.36 585.99 32.06 C 584.73 29.61 584.83 26.69 585.26 24.04 C 585.59 21.12 589.21 21.36 591.18 20.08 C 593.47 16.24 589.97 9.98 594.17 7.22 M 599.32 9.48 C 597.30 10.17 595.47 11.59 594.52 13.52 C 593.59 16.26 594.42 19.43 593.04 22.02 C 590.86 23.36 587.23 23.72 587.11 26.96 C 586.87 30.82 592.00 30.85 593.55 33.38 C 594.65 41.14 593.56 49.04 594.11 56.84 C 594.27 59.90 595.29 63.48 598.50 64.60 C 603.68 66.45 609.71 66.16 614.65 63.68 C 616.29 62.78 618.56 61.35 617.86 59.12 C 616.04 54.96 609.94 53.86 609.71 48.85 C 609.39 43.51 608.03 37.57 610.44 32.57 C 613.10 31.40 617.27 31.42 618.01 27.90 C 618.20 23.81 613.37 23.62 610.64 22.36 C 609.20 19.50 609.99 16.09 608.85 13.14 C 607.01 9.95 602.82 8.31 599.32 9.48 M 617.33 9.46 C 616.75 12.06 614.92 15.36 617.10 17.65 C 620.51 16.48 618.36 11.83 617.33 9.46 M 611.85 17.46 C 614.59 17.11 613.76 14.43 613.79 12.50 C 611.84 13.45 612.08 15.66 611.85 17.46 M 621.31 12.49 C 621.03 14.58 620.89 16.82 622.54 18.41 C 622.87 16.33 623.34 13.88 621.31 12.49 M 624.36 24.66 C 623.92 27.04 624.36 29.46 627.39 29.04 C 626.58 27.44 625.58 25.96 624.36 24.66 M 628.91 28.81 C 630.84 29.66 631.47 28.04 632.04 26.59 C 631.41 26.23 630.15 25.52 629.53 25.17 C 629.23 26.37 628.89 27.57 628.91 28.81 M 620.59 26.11 C 619.24 27.05 620.49 29.80 622.05 28.60 C 623.44 27.68 622.12 24.82 620.59 26.11 M 616.15 36.85 C 615.86 41.40 615.96 45.97 616.32 50.51 C 617.07 49.67 618.77 49.34 618.76 48.00 C 619.08 43.13 619.37 38.05 617.66 33.38 C 617.07 34.49 616.11 35.52 616.15 36.85 M 621.50 33.40 C 620.72 38.95 620.86 44.61 621.28 50.19 C 623.31 47.91 623.03 44.80 623.06 41.98 C 623.00 39.06 623.42 35.85 621.50 33.40 M 612.54 34.37 C 611.97 39.74 611.19 45.43 612.96 50.65 C 614.44 45.49 614.96 39.31 612.54 34.37 M 626.07 63.12 C 626.96 60.41 626.55 57.57 625.51 54.95 C 623.97 57.55 622.72 61.40 626.07 63.12 M 631.24 62.96 C 631.28 60.42 631.16 57.88 630.81 55.37 C 628.88 57.56 627.29 62.08 631.24 62.96 M 620.50 57.63 C 620.36 59.49 619.85 61.71 621.94 62.73 C 621.98 60.89 621.93 58.96 620.50 57.63 Z" />
<path fill="#000000" opacity="1.00" d=" M 384.53 20.72 C 392.31 19.72 400.27 19.22 408.05 20.51 C 415.80 21.68 421.23 28.72 423.04 35.95 C 425.54 45.75 423.25 57.50 415.03 64.01 C 408.67 69.07 400.08 68.22 392.46 68.72 C 391.74 72.74 392.64 77.15 390.89 80.93 C 385.87 82.90 380.24 81.66 374.97 82.00 C 370.07 81.69 364.76 82.89 360.16 80.80 C 358.80 78.45 359.10 75.60 358.98 72.99 C 359.06 57.65 358.91 42.30 359.05 26.95 C 359.16 24.82 359.20 21.38 362.09 21.26 C 369.54 20.49 377.07 21.50 384.53 20.72 M 375.60 26.97 C 373.35 24.06 369.20 22.06 365.66 23.70 C 361.81 26.84 361.09 32.28 361.08 36.97 C 361.13 48.68 361.01 60.39 361.13 72.11 C 360.77 77.76 368.73 82.39 372.89 77.87 C 377.94 73.37 375.08 66.09 377.61 60.54 C 380.10 62.29 382.45 64.44 385.45 65.29 C 390.75 66.73 396.89 65.76 401.00 61.94 C 405.96 57.42 408.01 50.50 407.99 43.95 C 408.12 37.35 406.15 30.33 401.14 25.78 C 397.66 22.53 392.69 21.29 388.02 21.79 C 383.39 22.12 379.85 25.50 375.60 26.97 M 408.16 24.84 C 410.64 29.26 413.44 33.73 413.87 38.92 C 415.09 45.38 413.15 51.68 411.81 57.92 C 415.41 56.01 415.83 51.63 416.45 48.05 C 417.50 39.69 415.86 29.66 408.16 24.84 M 414.10 26.38 C 415.83 30.13 418.19 33.70 418.81 37.87 C 419.82 45.22 418.98 52.96 415.48 59.59 C 420.40 56.53 420.84 50.15 421.36 44.95 C 421.32 38.29 420.17 30.33 414.10 26.38 M 405.98 27.67 C 407.53 31.65 409.59 35.55 409.86 39.89 C 410.54 45.09 409.55 50.26 408.71 55.37 C 411.65 51.95 411.83 47.24 411.87 42.97 C 411.86 37.38 410.22 31.54 405.98 27.67 M 379.69 76.58 C 380.16 73.04 380.17 69.42 379.38 65.92 C 378.08 69.36 378.24 73.21 379.69 76.58 M 389.66 75.84 C 390.33 73.22 389.49 70.58 388.68 68.11 C 387.49 70.38 385.30 76.76 389.66 75.84 M 383.20 79.29 C 384.92 76.88 386.30 73.00 383.92 70.59 C 380.40 71.99 382.42 76.62 383.20 79.29 Z" />
<path fill="#000000" opacity="1.00" d=" M 122.46 22.52 C 126.54 21.31 130.82 20.99 135.06 20.99 C 148.70 21.00 162.33 21.01 175.97 20.98 C 178.32 21.06 180.78 20.97 182.99 21.91 C 184.12 23.71 183.91 25.94 184.02 27.98 C 183.98 39.31 184.02 50.64 184.00 61.96 C 183.79 63.88 184.33 67.07 181.76 67.56 C 173.90 68.70 165.88 67.43 157.98 68.23 C 148.88 69.64 139.44 70.37 130.38 68.42 C 123.28 66.52 119.80 58.91 119.42 52.11 C 118.93 43.37 118.90 34.61 119.08 25.87 C 119.05 23.88 121.49 23.22 122.58 21.97 C 120.13 28.04 121.36 34.67 121.09 41.03 C 121.28 48.17 120.30 56.16 124.63 62.37 C 128.75 67.74 136.53 68.03 142.58 66.47 C 145.77 65.78 147.94 63.23 150.56 61.51 C 152.29 60.66 153.16 62.79 154.31 63.64 C 157.98 67.50 166.29 66.45 167.77 60.98 C 168.12 50.65 167.83 40.29 167.91 29.95 C 168.55 23.92 159.04 20.55 155.70 25.64 C 149.50 32.97 154.40 43.35 150.47 51.48 C 148.24 55.93 140.35 56.66 138.36 51.59 C 134.74 42.58 138.74 32.00 133.88 23.34 C 130.08 22.86 126.22 23.35 122.46 22.52 M 143.35 23.39 C 142.98 30.96 143.02 38.57 143.38 46.14 C 143.74 47.93 143.30 51.14 145.96 51.00 C 146.21 44.67 145.71 38.32 145.94 31.98 C 145.74 29.04 146.42 25.10 143.35 23.39 M 148.49 23.59 C 147.69 31.27 147.89 39.04 148.24 46.74 C 149.12 45.31 150.14 43.83 150.00 42.06 C 150.09 37.36 150.09 32.66 150.01 27.97 C 150.14 26.33 149.29 24.93 148.49 23.59 M 170.26 23.47 C 169.85 36.51 169.80 49.60 170.29 62.64 C 171.54 61.81 172.12 60.52 171.92 59.03 C 171.99 51.37 171.88 43.70 171.94 36.04 C 171.90 31.81 172.47 27.30 170.26 23.47 M 138.92 37.99 C 139.01 41.99 138.24 46.47 141.05 49.79 C 141.00 44.86 140.86 39.93 140.94 35.00 C 140.92 31.17 141.32 27.21 139.93 23.54 C 138.32 28.19 139.11 33.17 138.92 37.99 M 175.06 23.80 C 174.41 26.81 174.23 29.89 174.25 32.96 C 174.26 42.30 174.27 51.64 174.23 60.97 C 174.29 62.72 173.96 64.92 176.02 65.68 C 177.20 63.29 177.00 60.58 177.03 57.99 C 176.94 48.64 177.06 39.29 176.99 29.93 C 177.11 27.70 176.31 25.61 175.06 23.80 M 179.20 30.99 C 179.18 39.66 179.23 48.32 179.16 56.99 C 179.23 58.86 179.00 60.86 179.88 62.60 C 181.99 63.08 181.51 60.28 181.73 59.07 C 181.77 50.38 181.68 41.70 181.75 33.01 C 181.82 29.91 181.54 26.81 180.62 23.83 C 179.14 25.94 179.22 28.55 179.20 30.99 Z" />
<path fill="#000000" opacity="1.00" d=" M 305.92 23.05 C 313.47 21.40 321.26 21.41 328.95 21.30 C 335.74 21.41 343.03 21.56 349.00 25.25 C 352.03 27.07 353.77 30.42 354.25 33.85 C 355.92 44.31 352.53 55.14 355.81 65.40 C 354.08 66.59 352.31 68.08 350.07 67.95 C 340.70 68.24 331.27 67.40 321.99 69.01 C 313.83 69.13 304.93 70.56 297.40 66.65 C 289.22 62.44 288.70 49.35 296.29 44.32 C 301.96 40.64 308.94 40.25 315.28 38.35 C 308.86 37.68 302.37 38.56 295.97 37.79 C 293.19 37.49 293.56 34.12 294.30 32.21 C 295.93 27.14 300.97 24.14 305.92 23.05 M 301.58 26.68 C 298.44 28.38 297.25 32.40 298.33 35.69 C 301.85 36.21 305.47 36.21 309.00 35.81 C 311.70 34.55 313.77 31.78 316.97 31.76 C 319.75 31.58 323.46 32.88 323.74 36.09 C 324.05 38.58 321.53 40.10 319.45 40.61 C 312.45 42.22 304.90 41.98 298.38 45.35 C 290.51 49.40 292.07 62.89 300.20 65.74 C 308.10 68.58 317.00 66.76 323.87 62.17 C 325.36 63.56 326.45 66.10 328.86 65.89 C 332.30 65.70 336.77 67.18 339.44 64.39 C 339.52 56.64 339.29 48.86 339.27 41.10 C 338.93 36.31 339.00 30.38 334.70 27.23 C 329.88 23.88 323.71 23.62 318.04 23.55 C 312.47 23.71 306.56 23.86 301.58 26.68 M 342.95 26.80 C 343.65 30.54 345.00 34.16 345.18 37.99 C 345.48 45.01 345.05 52.04 345.32 59.06 C 345.16 61.01 346.69 62.36 347.83 63.72 C 347.81 55.11 348.06 46.49 347.56 37.89 C 347.37 33.77 345.62 29.90 342.95 26.80 M 339.43 27.72 C 342.27 38.27 341.05 49.22 341.31 60.00 C 341.22 61.51 341.81 62.74 343.07 63.68 C 343.01 55.77 342.99 47.87 343.00 39.96 C 343.04 35.65 342.04 31.22 339.43 27.72 M 347.66 26.95 C 351.21 37.33 349.63 48.34 350.05 59.08 C 349.82 61.06 351.30 62.44 352.52 63.75 C 352.40 55.18 352.74 46.60 352.20 38.05 C 352.02 33.94 350.50 29.95 347.66 26.95 Z" />
<path fill="#000000" opacity="1.00" d=" M 442.94 23.05 C 450.51 21.39 458.33 21.41 466.05 21.30 C 472.80 21.41 480.03 21.58 485.96 25.23 C 488.99 27.04 490.76 30.38 491.25 33.81 C 492.93 44.28 489.53 55.13 492.80 65.41 C 491.30 66.35 489.89 67.71 488.04 67.86 C 479.41 68.48 470.68 67.25 462.10 68.66 C 456.45 69.39 450.73 69.39 445.05 69.21 C 440.66 69.06 436.03 68.26 432.56 65.37 C 426.00 60.31 426.44 48.79 433.38 44.26 C 439.04 40.64 445.98 40.24 452.29 38.34 C 445.88 37.70 439.40 38.54 433.01 37.79 C 430.25 37.54 430.54 34.21 431.27 32.29 C 432.88 27.18 437.94 24.14 442.94 23.05 M 438.01 27.05 C 434.99 28.91 434.83 32.68 435.12 35.83 C 438.74 35.98 442.41 36.27 446.02 35.81 C 448.70 34.54 450.78 31.79 453.96 31.76 C 456.74 31.58 460.45 32.87 460.74 36.08 C 461.06 38.56 458.55 40.08 456.48 40.60 C 449.49 42.22 441.94 41.98 435.42 45.33 C 427.52 49.35 429.05 62.86 437.17 65.73 C 445.08 68.58 453.99 66.76 460.87 62.17 C 462.38 63.61 463.52 66.15 465.98 65.90 C 469.37 65.71 473.75 67.14 476.41 64.44 C 476.77 59.98 476.16 55.50 476.34 51.03 C 476.18 44.21 476.98 37.06 474.48 30.55 C 471.59 25.02 464.58 24.07 458.98 23.65 C 451.94 23.52 444.25 23.27 438.01 27.05 M 482.18 37.99 C 482.48 45.00 482.05 52.03 482.32 59.05 C 482.15 61.01 483.70 62.36 484.86 63.71 C 484.78 55.12 485.06 46.51 484.56 37.93 C 484.39 33.82 482.62 29.99 480.08 26.82 C 480.61 30.57 481.99 34.18 482.18 37.99 M 476.41 27.73 C 479.54 38.88 477.71 50.49 478.50 61.86 C 478.89 62.31 479.68 63.22 480.07 63.68 C 480.03 56.10 479.96 48.53 480.02 40.95 C 480.11 36.33 479.30 31.48 476.41 27.73 M 484.66 26.98 C 488.23 37.36 486.62 48.38 487.06 59.13 C 486.83 61.09 488.34 62.44 489.51 63.76 C 489.41 55.20 489.73 46.63 489.20 38.08 C 489.02 33.97 487.52 29.97 484.66 26.98 Z" />
<path fill="#000000" opacity="1.00" d=" M 549.47 21.58 C 554.85 20.30 560.51 21.30 566.01 21.00 C 570.23 21.10 574.51 20.65 578.69 21.42 C 581.18 21.96 580.90 25.06 581.07 27.01 C 581.12 38.33 581.06 49.66 581.10 60.99 C 580.89 62.95 581.31 65.36 579.86 66.93 C 576.84 68.44 573.29 67.86 570.03 68.02 C 563.48 67.76 556.85 68.55 550.36 67.47 C 547.71 67.11 548.17 63.93 548.00 62.01 C 548.03 49.99 547.93 37.96 548.04 25.94 C 548.28 24.53 547.98 22.33 549.47 21.58 M 555.39 23.51 C 552.95 24.30 549.95 25.98 550.14 28.95 C 550.00 37.30 550.11 45.67 550.09 54.02 C 549.98 58.36 551.83 63.14 555.87 65.19 C 559.36 66.53 563.75 64.84 565.65 61.67 C 566.46 56.16 565.79 50.54 566.00 44.98 C 565.87 38.39 567.03 30.88 562.47 25.41 C 560.89 23.15 557.88 22.61 555.39 23.51 M 568.70 24.40 C 567.36 33.53 568.27 42.81 567.99 52.00 C 568.19 55.93 567.07 60.40 569.78 63.72 C 570.27 54.16 569.87 44.57 570.00 35.00 C 569.81 31.47 570.46 27.63 568.70 24.40 M 572.90 23.54 C 571.81 30.63 572.44 37.83 572.28 44.97 C 572.44 50.50 571.87 56.09 572.58 61.59 C 574.48 63.87 574.74 60.52 574.78 59.06 C 574.85 50.71 574.73 42.36 574.81 34.01 C 574.75 30.45 575.35 26.52 572.90 23.54 M 577.58 24.09 C 576.61 30.35 577.11 36.70 577.00 43.01 C 577.11 49.62 576.70 56.24 577.31 62.83 C 579.42 61.59 578.95 59.07 579.03 57.02 C 578.95 48.01 579.04 38.99 579.00 29.98 C 579.06 27.92 578.55 25.90 577.58 24.09 Z" />
<path fill="#000000" opacity="1.00" d=" M 658.58 22.82 C 668.59 22.18 679.39 20.63 688.76 25.17 C 703.43 31.79 704.84 55.66 691.21 64.12 C 683.81 69.27 674.44 67.79 665.98 68.02 C 658.57 68.13 650.21 67.77 644.49 62.39 C 637.64 56.39 636.99 46.14 638.96 37.82 C 641.21 29.04 649.93 23.62 658.58 22.82 M 654.14 25.05 C 643.03 27.55 636.91 40.54 640.03 51.07 C 641.67 59.41 649.72 64.86 657.82 65.58 C 666.50 66.77 677.19 65.20 682.09 57.03 C 686.57 48.86 686.96 37.10 679.80 30.28 C 672.96 24.09 662.84 23.10 654.14 25.05 M 686.21 28.60 C 688.61 32.43 691.04 36.45 691.34 41.09 C 692.15 46.52 689.86 51.72 689.56 57.09 C 693.29 53.89 693.70 48.60 693.81 44.02 C 693.89 38.04 691.51 31.81 686.21 28.60 M 690.93 28.59 C 693.27 33.10 695.88 37.73 695.96 42.97 C 696.61 48.04 694.21 52.72 693.56 57.64 C 697.27 55.00 697.98 50.19 698.35 45.99 C 698.82 39.45 696.73 32.28 690.93 28.59 M 684.16 30.30 C 685.75 34.40 687.68 38.49 687.86 42.98 C 688.30 46.90 687.05 50.69 686.45 54.52 C 689.20 52.19 689.25 48.33 689.46 45.01 C 689.67 39.65 688.07 34.11 684.16 30.30 Z" />
<path fill="#000000" opacity="1.00" d=" M 382.39 33.59 C 386.16 32.42 390.25 34.74 391.59 38.36 C 393.59 43.38 393.09 50.14 388.62 53.69 C 384.89 56.46 379.31 54.57 377.52 50.42 C 374.62 44.89 375.51 35.58 382.39 33.59 M 379.49 47.62 C 380.08 43.95 380.35 40.23 380.26 36.51 C 378.79 39.83 376.65 44.47 379.49 47.62 M 385.15 49.19 C 384.86 45.64 384.84 42.08 384.73 38.52 C 380.81 40.94 381.23 46.97 385.15 49.19 M 386.83 44.00 C 386.71 45.96 388.56 47.02 389.74 48.27 C 389.80 45.46 389.73 42.65 389.20 39.89 C 388.30 41.13 386.50 42.21 386.83 44.00 Z" />
<path fill="#000000" opacity="1.00" d=" M 659.51 33.64 C 662.97 31.96 667.38 33.56 669.00 37.03 C 671.63 42.31 671.33 49.15 667.95 54.03 C 665.08 58.01 658.37 57.38 656.23 52.98 C 652.93 47.01 653.17 37.49 659.51 33.64 M 658.86 50.65 C 658.70 46.95 658.69 43.26 658.63 39.56 C 656.33 42.89 656.50 47.40 658.86 50.65 M 663.68 50.96 C 663.20 47.13 663.13 43.28 663.36 39.43 C 658.86 41.60 659.97 48.47 663.68 50.96 M 667.38 49.41 C 667.80 46.22 667.72 42.98 667.63 39.77 C 664.24 42.14 664.35 46.79 667.38 49.41 Z" />
<path fill="#000000" opacity="1.00" d=" M 314.41 48.61 C 317.35 47.80 320.79 46.82 323.65 48.39 C 324.44 53.13 321.23 59.02 315.99 59.15 C 313.19 59.31 309.21 58.35 308.88 55.00 C 308.53 51.72 311.64 49.51 314.41 48.61 M 315.37 53.22 C 314.16 54.62 316.55 56.46 317.63 55.00 C 318.79 53.62 316.43 51.74 315.37 53.22 M 311.32 53.78 C 310.75 55.37 311.28 55.95 312.93 55.51 C 313.50 53.91 312.96 53.33 311.32 53.78 Z" />
<path fill="#000000" opacity="1.00" d=" M 451.39 48.61 C 454.34 47.79 457.80 46.82 460.67 48.40 C 461.39 53.13 458.26 58.98 453.04 59.15 C 450.22 59.33 446.20 58.36 445.88 54.98 C 445.55 51.70 448.64 49.52 451.39 48.61 M 452.31 53.30 C 451.19 54.76 453.67 56.45 454.67 54.95 C 455.75 53.50 453.27 51.76 452.31 53.30 M 448.30 53.77 C 447.73 55.37 448.27 55.94 449.92 55.50 C 450.48 53.90 449.95 53.33 448.30 53.77 Z" />
<path fill="#000000" opacity="1.00" d=" M 264.66 105.16 C 264.52 100.65 271.12 99.48 272.75 103.60 C 271.00 103.08 269.22 101.38 267.34 102.39 C 265.02 103.76 265.26 108.32 268.12 108.90 C 269.36 109.75 271.75 106.68 272.17 108.22 C 270.34 112.00 263.70 109.31 264.66 105.16 Z" />
<path fill="#000000" opacity="1.00" d=" M 308.88 103.16 C 308.85 102.61 308.79 101.52 308.75 100.98 L 309.79 101.00 C 309.80 103.98 309.82 106.95 309.89 109.93 C 308.46 109.72 306.88 110.05 305.55 109.41 C 302.96 107.05 304.91 101.63 308.88 103.16 M 306.05 104.24 C 305.41 105.73 304.95 108.61 307.09 109.03 C 310.04 108.79 309.10 102.53 306.05 104.24 Z" />
<path fill="#000000" opacity="1.00" d=" M 345.97 109.96 C 341.46 109.49 341.46 101.54 345.99 101.06 C 348.10 100.47 349.36 102.48 350.55 103.80 C 349.05 103.21 347.67 102.25 346.06 102.02 C 343.35 102.59 343.19 106.41 344.62 108.27 C 346.63 110.11 348.79 107.52 350.66 106.80 C 349.59 108.37 348.24 110.52 345.97 109.96 Z" />
<path fill="#000000" opacity="1.00" d=" M 402.87 103.15 C 402.85 102.61 402.79 101.53 402.76 100.99 L 403.79 100.99 C 403.80 103.97 403.82 106.96 403.89 109.94 C 402.45 109.76 400.92 109.97 399.57 109.44 C 396.97 107.07 398.87 101.68 402.87 103.15 M 400.04 104.25 C 399.42 105.66 399.35 107.27 400.04 108.67 C 403.74 110.94 403.77 102.23 400.04 104.25 Z" />
<path fill="#000000" opacity="1.00" d=" M 412.59 104.73 C 412.89 103.21 413.18 101.67 413.71 100.21 C 414.08 103.16 414.03 106.13 414.03 109.10 C 415.97 109.02 417.92 108.96 419.86 108.75 C 421.49 108.63 423.11 108.47 424.75 108.36 C 421.31 110.87 416.81 109.59 412.86 110.05 C 412.89 109.20 412.97 107.50 413.01 106.65 C 410.79 106.83 408.44 107.48 406.28 106.72 C 406.60 105.36 409.24 106.23 410.24 105.66 C 409.91 105.25 409.25 104.44 408.92 104.04 C 407.75 104.83 406.29 104.99 405.13 104.09 C 407.66 102.44 411.25 102.83 411.09 106.59 C 411.59 105.97 412.09 105.35 412.59 104.73 Z" />
<path fill="#000000" opacity="1.00" d=" M 426.26 109.89 C 425.97 106.79 425.23 103.57 426.34 100.54 C 426.77 101.47 427.19 102.39 427.63 103.32 C 427.19 105.17 427.04 107.05 426.93 108.94 C 427.68 109.04 429.19 109.24 429.95 109.34 C 429.82 107.34 429.76 105.35 429.67 103.36 C 430.85 103.19 432.04 103.03 433.23 102.86 C 430.63 104.38 430.70 107.26 430.83 109.90 C 429.30 109.89 427.78 109.89 426.26 109.89 Z" />
<path fill="#000000" opacity="1.00" d=" M 275.28 103.72 C 274.23 101.63 277.32 103.27 278.16 103.76 C 278.39 104.48 278.86 105.93 279.10 106.65 C 280.30 105.42 280.78 102.84 282.92 103.14 C 287.21 102.41 285.65 108.29 285.60 110.75 C 284.84 108.54 284.72 106.20 284.49 103.90 C 280.80 103.81 282.27 108.37 281.37 110.70 C 281.13 109.37 280.94 108.04 280.80 106.71 C 278.63 106.85 276.35 107.48 274.25 106.73 L 274.26 106.30 C 275.67 106.00 277.10 105.77 278.54 105.61 C 277.46 104.96 276.36 104.35 275.28 103.72 Z" />
<path fill="#000000" opacity="1.00" d=" M 287.14 104.09 C 288.69 104.06 290.95 101.96 292.18 103.90 C 292.71 104.94 293.18 106.02 293.58 107.13 C 291.78 107.03 289.97 107.08 288.21 106.73 C 288.85 105.03 291.02 106.17 292.36 105.89 C 292.00 105.42 291.28 104.50 290.92 104.04 C 289.75 104.83 288.30 104.99 287.14 104.09 Z" />
<path fill="#000000" opacity="1.00" d=" M 293.69 103.32 C 294.57 103.21 296.34 102.99 297.22 102.88 C 294.44 104.59 294.88 107.93 294.32 110.71 C 293.82 108.27 293.78 105.79 293.69 103.32 Z" />
<path fill="#000000" opacity="1.00" d=" M 296.98 104.53 C 298.63 103.61 300.63 102.22 302.48 103.59 C 302.91 105.67 302.92 107.80 303.10 109.90 C 300.77 109.85 298.28 109.99 296.62 108.04 C 298.52 107.08 300.46 106.18 302.39 105.26 C 300.84 103.89 298.83 104.38 296.98 104.53 M 299.97 107.10 C 298.22 107.40 299.18 109.77 300.67 108.92 C 302.39 108.58 301.46 106.28 299.97 107.10 Z" />
<path fill="#000000" opacity="1.00" d=" M 312.60 103.60 C 316.82 100.61 319.35 108.97 314.92 109.99 C 311.43 110.61 310.30 105.52 312.60 103.60 M 313.15 104.26 C 312.06 105.86 312.16 109.48 314.83 108.98 C 317.28 107.87 316.10 102.67 313.15 104.26 Z" />
<path fill="#000000" opacity="1.00" d=" M 321.74 103.19 C 323.60 103.33 326.55 102.50 327.01 105.10 C 328.03 107.88 325.88 110.42 323.00 110.02 C 322.83 110.70 322.47 112.06 322.29 112.74 C 321.67 109.60 321.74 106.38 321.74 103.19 M 324.16 104.11 C 322.06 104.57 322.20 109.43 324.84 109.03 C 326.67 108.09 326.68 103.69 324.16 104.11 Z" />
<path fill="#000000" opacity="1.00" d=" M 330.89 109.98 C 327.07 109.34 327.86 102.29 331.93 102.98 C 333.04 103.87 333.85 105.06 334.84 106.09 C 335.15 105.40 335.77 104.04 336.08 103.36 C 337.13 103.18 338.18 103.01 339.24 102.83 C 336.54 104.49 336.74 107.60 336.71 110.38 C 336.06 109.64 335.42 108.91 334.77 108.18 C 333.39 108.60 332.35 109.82 330.89 109.98 M 330.02 104.31 C 329.19 106.00 329.13 109.51 331.85 108.96 C 334.34 107.81 333.01 102.58 330.02 104.31 Z" />
<path fill="#000000" opacity="1.00" d=" M 353.10 109.75 C 350.16 108.21 351.20 102.40 354.93 102.98 C 356.05 103.87 356.85 105.09 357.86 106.11 C 358.18 105.40 358.81 103.99 359.13 103.28 C 360.04 103.28 360.95 103.28 361.87 103.28 C 363.02 103.35 364.16 103.38 365.32 103.40 C 365.83 104.82 366.33 106.25 366.86 107.68 C 367.77 105.89 368.64 104.05 369.79 102.38 C 369.21 105.25 368.20 108.00 367.06 110.68 C 366.02 108.27 365.04 105.83 363.91 103.47 C 363.85 105.65 363.84 107.84 363.83 110.03 L 362.92 109.94 C 362.52 107.98 363.80 102.97 360.29 104.25 C 359.85 106.26 359.83 108.33 359.72 110.37 C 359.07 109.63 358.42 108.90 357.77 108.18 C 356.17 108.58 354.88 110.53 353.10 109.75 M 353.08 104.29 C 352.27 105.89 352.08 108.28 354.02 109.13 C 357.40 109.11 356.46 102.43 353.08 104.29 Z" />
<path fill="#000000" opacity="1.00" d=" M 370.51 103.55 C 373.11 102.52 376.35 103.19 376.09 106.68 C 377.32 104.73 378.61 102.70 381.21 102.60 C 378.72 104.47 378.68 107.50 378.77 110.34 C 378.11 109.31 377.57 108.18 376.74 107.28 C 375.02 106.56 373.04 107.39 371.33 106.70 C 371.35 105.12 374.40 106.20 375.50 105.72 C 374.58 104.97 373.66 104.24 372.74 103.51 L 371.99 105.72 C 371.48 105.00 370.99 104.28 370.51 103.55 Z" />
<path fill="#000000" opacity="1.00" d=" M 381.69 105.21 C 381.14 102.04 385.71 102.91 386.87 104.79 C 385.27 104.51 383.68 104.23 382.09 103.94 C 383.00 104.76 383.93 105.57 384.87 106.36 C 385.69 106.71 386.51 107.06 387.33 107.41 C 387.68 105.78 387.69 103.21 389.92 103.02 C 391.85 102.62 392.51 104.80 393.49 105.93 L 393.84 105.94 C 394.15 105.28 394.78 103.95 395.09 103.28 C 396.23 103.20 397.39 103.12 398.55 103.05 C 397.92 103.44 396.66 104.22 396.04 104.61 C 395.92 106.53 395.83 108.46 395.77 110.39 C 395.10 109.65 394.43 108.91 393.76 108.18 C 392.04 109.25 388.14 111.53 388.10 107.65 C 386.83 108.56 385.67 109.80 384.07 110.05 C 382.78 109.84 381.79 108.94 380.70 108.31 C 382.44 108.51 384.17 108.76 385.93 108.94 C 384.64 107.59 382.63 106.78 381.69 105.21 M 389.05 104.31 C 388.11 105.97 388.32 109.36 390.88 109.05 C 393.25 107.72 392.07 102.63 389.05 104.31 Z" />
<path fill="#000000" opacity="1.00" d=" M 418.14 104.09 C 419.64 104.11 421.87 101.97 423.08 103.84 C 423.63 104.76 424.13 105.70 424.59 106.68 C 422.70 106.95 420.82 107.23 418.94 107.54 L 417.95 105.78 C 419.74 105.89 421.53 105.98 423.32 106.04 C 422.98 105.54 422.28 104.53 421.94 104.02 C 420.76 104.82 419.30 105.00 418.14 104.09 Z" />
<path fill="#000000" opacity="1.00" d=" M 433.00 104.58 C 434.61 103.59 436.59 102.25 438.45 103.56 C 438.89 105.64 438.92 107.78 439.10 109.89 C 437.20 109.74 435.22 109.94 433.40 109.28 C 433.03 106.63 436.19 106.50 437.87 105.51 C 437.66 103.06 434.49 104.88 433.00 104.58 M 435.96 107.11 C 434.22 107.46 435.28 109.79 436.73 108.91 C 438.44 108.52 437.41 106.26 435.96 107.11 Z" />
<path fill="#000000" opacity="1.00" d=" M 440.37 105.91 C 440.48 104.74 440.92 103.55 442.04 102.97 C 443.58 102.84 444.75 103.89 445.90 104.74 C 444.58 104.44 443.25 104.28 441.92 104.24 C 442.78 106.13 446.32 106.51 445.33 109.18 C 443.49 110.75 441.43 109.55 439.73 108.45 C 441.56 108.55 443.42 108.74 445.23 108.26 C 443.62 107.43 442.00 106.66 440.37 105.91 Z" />
<path fill="#000000" opacity="1.00" d=" M 450.57 103.61 C 452.21 101.96 454.14 103.84 455.41 105.01 C 454.06 104.61 452.72 104.19 451.39 103.76 C 450.95 105.40 450.17 107.13 451.09 108.78 C 452.56 108.61 454.00 108.24 455.47 107.99 C 455.62 106.35 455.35 104.16 457.09 103.22 C 459.40 102.11 460.46 104.82 461.85 106.09 C 462.17 105.39 462.81 104.00 463.14 103.30 C 465.71 103.54 468.67 102.56 471.00 103.87 C 471.50 106.14 471.29 108.53 470.55 110.73 C 470.23 108.40 470.10 106.05 469.90 103.71 C 466.66 104.09 467.83 107.74 467.43 109.98 C 467.20 109.94 466.75 109.86 466.52 109.82 C 466.46 107.69 466.35 105.57 466.19 103.45 C 463.13 104.48 464.01 107.92 463.73 110.37 C 463.08 109.64 462.42 108.91 461.77 108.19 C 460.08 108.91 458.57 110.43 456.66 109.34 C 455.56 109.13 454.45 108.95 453.35 108.79 L 453.20 110.56 C 449.91 110.08 448.13 106.07 450.57 103.61 M 457.06 104.32 C 456.33 105.77 456.01 108.56 458.06 108.99 C 461.49 109.24 460.34 102.24 457.06 104.32 Z" />
<path fill="#000000" opacity="1.00" d=" M 269.65 105.21 C 270.90 104.42 271.64 104.69 271.87 106.04 C 270.63 106.82 269.89 106.54 269.65 105.21 Z" />
<path fill="#000000" opacity="1.00" d=" M 274.02 108.39 C 275.54 108.20 277.31 108.28 278.85 108.43 C 278.87 110.68 274.02 110.68 274.02 108.39 Z" />
<path fill="#000000" opacity="1.00" d=" M 287.93 108.47 C 288.54 107.99 289.25 107.94 290.05 108.31 C 290.89 108.72 292.63 107.61 292.95 108.82 C 291.96 110.61 288.59 110.45 287.93 108.47 Z" />
<path fill="#000000" opacity="1.00" d=" M 370.88 108.43 C 371.49 108.20 372.15 108.25 372.86 108.57 C 373.78 108.75 375.62 107.45 375.98 108.81 C 375.07 110.82 371.45 110.54 370.88 108.43 Z" />
<path fill="#000000" opacity="1.00" d=" M 405.92 108.46 C 407.32 107.73 409.29 108.50 410.85 108.46 C 410.75 110.67 406.42 110.55 405.92 108.46 Z" />
<path fill="#000000" opacity="1.00" d=" M 447.01 109.09 C 449.95 107.53 447.18 112.42 447.01 109.09 Z" />
</g>
</svg>
